<?xml version="1.0" encoding="utf-8"?>
<!-- Generator: Adobe Illustrator 22.0.1, SVG Export Plug-In . SVG Version: 6.00 Build 0)  -->
<svg version="1.1" id="Ebene_1" xmlns="http://www.w3.org/2000/svg" xmlns:xlink="http://www.w3.org/1999/xlink" x="0px" y="0px"
	 viewBox="0 0 325 67" style="enable-background:new 0 0 325 67;" xml:space="preserve">
<style type="text/css">
	.st0{fill:#004380;}
</style>
<g>
	<g>
		<path class="st0" d="M0.1,29.7V0.4h5.6v12.1h0.1L13,0.4h6.1l-7.5,11.8L20,29.7h-6.3L7.8,17.4l-2.2,3.3v9H0.1z"/>
		<path class="st0" d="M24.8,29.7L32,0.4h7.2l7,29.3h-5.3l-1.4-6.2h-7.7l-1.6,6.2H24.8z M32.8,18.6h5.5L35.6,6.7h-0.1L32.8,18.6z"/>
		<path class="st0" d="M53.5,29.7V0.4h5.6v24.4h9v5H53.5z"/>
	</g>
	<g>
		<path class="st0" d="M90.3,0.4v5h-6.5v24.4h-5.6V5.4h-6.5v-5H90.3z"/>
		<path class="st0" d="M96.2,0.4h5.2l3.9,19.2h0.1l4-19.2h5.4l4.1,19.2h0.1l3.9-19.2h5.2l-6.4,29.3h-5.4l-4.1-20.1h-0.1l-4.4,20.1
			h-5.3L96.2,0.4z"/>
	</g>
	<g>
		<path class="st0" d="M133,29.7l7.3-29.3h7.2l7,29.3h-5.3l-1.4-6.2H140l-1.6,6.2H133z M141,18.6h5.5l-2.7-11.9h-0.1L141,18.6z"/>
		<path class="st0" d="M174.1,8.6c-0.9-2.8-2.1-3.9-4.1-3.9c-2,0-3.1,1.2-3.1,3.2c0,4.4,12.5,4.7,12.5,13.9c0,5-3.4,8.4-9.3,8.4
			c-4.5,0-8.1-2.5-9.6-8.2l5.5-1.2c0.6,3.5,2.7,4.8,4.3,4.8c1.9,0,3.4-1.3,3.4-3.5c0-5.5-12.5-5.6-12.5-13.8c0-5,3-8.2,8.8-8.2
			c5,0,8,3,9,7.1L174.1,8.6z"/>
		<path class="st0" d="M200.8,8.6c-0.9-2.8-2.1-3.9-4.1-3.9c-2,0-3.1,1.2-3.1,3.2c0,4.4,12.5,4.7,12.5,13.9c0,5-3.4,8.4-9.3,8.4
			c-4.5,0-8.1-2.5-9.6-8.2l5.5-1.2c0.6,3.5,2.7,4.8,4.3,4.8c1.9,0,3.4-1.3,3.4-3.5c0-5.5-12.5-5.6-12.5-13.8c0-5,3-8.2,8.8-8.2
			c5,0,8,3,9,7.1L200.8,8.6z"/>
		<path class="st0" d="M215.1,29.7V0.4h15.3v5h-9.7v6.7h7.4v5h-7.4v7.7h10.1v5H215.1z"/>
		<path class="st0" d="M252.7,29.7l-4.9-11.9h-2.7v11.9h-5.6V0.4h8.1c6.7,0,9.9,3.2,9.9,8.8c0,3.7-1.3,6.3-4.4,7.5l5.5,13.1H252.7z
			 M245.1,13.2h2.9c2.5,0,4-1.2,4-4.1S250.5,5,248,5h-2.9V13.2z"/>
	</g>
	<g>
		<path class="st0" d="M1.2,53.6H0V42.5h1.2v5.8h0l4.6-5.8h1.5l-3.4,4.2l3.9,6.9H6.3L3,47.7l-1.8,2.2V53.6z"/>
		<path class="st0" d="M14.8,42.3c2.7,0,4.3,2,4.3,5.7c0,3.7-1.6,5.7-4.3,5.7s-4.3-2-4.3-5.7C10.5,44.3,12.1,42.3,14.8,42.3z
			 M14.8,52.7c2,0,3.1-1.5,3.1-4.7c0-3.2-1.2-4.7-3.1-4.7c-2,0-3.1,1.5-3.1,4.7C11.7,51.2,12.8,52.7,14.8,52.7z"/>
		<path class="st0" d="M31.2,53.6V43.5h0L28,53.6h-1L24,43.5h0v10.2h-1.1V42.5h1.9l2.8,9h0l2.8-9h1.9v11.1H31.2z"/>
		<path class="st0" d="M45.2,53.6V43.5h0L42,53.6h-1L38,43.5h0v10.2h-1.1V42.5h1.9l2.8,9h0l2.8-9h1.9v11.1H45.2z"/>
		<path class="st0" d="M52.1,42.5v7.9c0,1.3,0.9,2.4,2.7,2.4c1.7,0,2.7-1.1,2.7-2.4v-7.9h1.2v7.8c0,2.2-1.6,3.5-3.9,3.5
			c-2.3,0-3.9-1.3-3.9-3.5v-7.8H52.1z"/>
		<path class="st0" d="M63.1,53.6V42.5h1.8l4.8,8.6h0.1v-8.6h1.1v11.1h-1l-5.6-9.9h0v9.9H63.1z"/>
		<path class="st0" d="M76.9,42.5v11.1h-1.2V42.5H76.9z"/>
		<path class="st0" d="M83.1,53.6h-1.2V42.5h1.2v5.8h0l4.6-5.8h1.5l-3.4,4.2l3.9,6.9h-1.4l-3.3-5.9l-1.8,2.2V53.6z"/>
		<path class="st0" d="M91.9,53.6l3.4-11.1h1.8l3.4,11.1h-1.3l-1-3.5h-4l-1,3.5H91.9z M94.6,49.1H98l-1.6-5.7h-0.2L94.6,49.1z"/>
	</g>
	<g>
		<path class="st0" d="M105.7,43.5v10.1h-1.2V43.5h-3.3v-1h7.9v1H105.7z"/>
		<path class="st0" d="M113.7,42.5v11.1h-1.2V42.5H113.7z"/>
		<path class="st0" d="M122,42.3c2.7,0,4.3,2,4.3,5.7c0,3.7-1.6,5.7-4.3,5.7c-2.7,0-4.3-2-4.3-5.7C117.7,44.3,119.3,42.3,122,42.3z
			 M122,52.7c2,0,3.1-1.5,3.1-4.7c0-3.2-1.2-4.7-3.1-4.7c-2,0-3.1,1.5-3.1,4.7C118.9,51.2,120,52.7,122,52.7z"/>
		<path class="st0" d="M130,53.6V42.5h1.8l4.8,8.6h0.1v-8.6h1.1v11.1h-1l-5.6-9.9h0v9.9H130z"/>
	</g>
	<path class="st0" d="M293.8,12.3c0,0,30.9,6.1,31.2,21.8c0.2,14.6-23.9,22-33.2,25.2c-5.2,1.8-28.3,7.6-60,7.7
		c-31.7,0.1-66.1-7.7-74.8-15c-0.1-0.1,22.5,10.7,68.4,11.6c3.9,0.1,36.9,0.4,63.7-7.4c26.9-7.9,30.6-17.7,30.7-23.6
		C320.1,21.9,293.8,12.3,293.8,12.3L293.8,12.3z"/>
	<path class="st0" d="M167.8,46c0,0,10.6,8.1,49.8,10.7c34.3,2.3,64-6.5,64-6.5s25.4-6.4,25.1-19c-0.3-12.6-25.3-16.8-25.3-16.8
		s20.6,6.4,20.9,15.8c0.3,8.8-13.4,15-25,18.4c-11.6,3.4-32.6,5.8-51.7,5.8C188.6,54.4,167.8,46,167.8,46L167.8,46z"/>
	<path class="st0" d="M185.6,42c0,0,11.5,4.8,45.8,4.9c22,0.1,56.7-5.7,56.4-17.1c-0.2-9.4-15.5-11.8-15.5-11.8s12,4.9,12.3,11.1
		c0.2,4.2-3.9,8.3-23.1,12.6c-14.3,2.8-34.5,3.3-42.6,3.2C200.6,44.6,185.6,42,185.6,42L185.6,42z"/>
</g>
</svg>
